<?xml version="1.0" encoding="UTF-8"?>
<svg width="998px" height="998px" viewBox="0 0 998 998" version="1.1" xmlns="http://www.w3.org/2000/svg" xmlns:xlink="http://www.w3.org/1999/xlink">
    <!-- Generator: Sketch 64 (93537) - https://sketch.com -->
    <title>logo</title>
    <desc>Created with Sketch.</desc>
    <g id="Welcome" stroke="none" stroke-width="1" fill="none" fill-rule="evenodd">
        <g id="logo" transform="translate(-1.000000, -1.000000)">
            <g transform="translate(1.000000, 1.000000)">
                <polygon id="Fill-2220" fill="#FEFEFE" points="994 500.989354 852.514025 642.497595 852.514025 851.356916 643.652763 851.356916 502.010646 993 360.382724 851.356916 152.110543 851.356916 152.110543 643.001486 10 500.989354 152.110543 359.119164 152.110543 150.352105 360.47499 150.352105 502.010646 9 643.816002 150.352105 852.514025 150.352105 852.514025 359.495308"></polygon>
                <path d="M499.007104,0 L355.432008,143.39848 L144.164712,143.39848 L144.164712,355.061654 L0,498.978689 L144.164712,643.052002 L144.164712,854.310277 L355.332555,854.310277 L499.014208,998 L642.702964,854.310277 L854.481735,854.310277 L854.481735,642.547653 L998,498.985793 L854.481735,355.43814 L854.481735,143.39848 L642.859248,143.39848 L499.007104,0 Z M153.428079,639.216109 L13.1136325,498.985793 L153.428079,358.904651 L153.428079,152.668555 L359.268066,152.668555 L499.014208,13.0917619 L637.673467,151.318889 L639.037398,152.668555 L845.197056,152.668555 L845.197056,359.281137 L984.893471,498.985793 L845.197056,638.704656 L845.197056,845.033097 L638.859803,845.033097 L499.014208,984.886928 L359.175716,845.033097 L153.428079,845.033097 L153.428079,639.216109 Z" id="Fill-2221" fill="#006225"></path>
                <g id="Group-2234" transform="translate(63.000000, 63.000000)">
                    <path d="M743.202774,126.897431 L127.039827,126.897431 L127.039827,391.150219 L167.686398,384.478423 L219.629621,394.344164 L283.004915,397.516815 L349.095682,363.306119 L373.093052,354.043679 L432.812079,347.819036 C466.281533,436.844921 511.681963,505.358583 594.62862,547.213454 C633.978035,596.31503 684.809411,629.113293 743.202774,647.929176 L743.202774,126.897431 Z" id="Fill-2222" fill="#50C7E6"></path>
                    <path d="M870.594812,434.321705 L787.120741,517.442341 L787.120741,351.193971 L870.594812,434.321705 Z M518.609626,784.846487 L435.299481,867.803877 L351.975081,784.846487 L518.609626,784.846487 Z M83.6706568,517.633977 L-0.00297697403,434.321705 L83.5851301,351.087506 L83.6706568,517.633977 Z M351.74701,84.0240469 L435.299481,0.818239002 L519.001624,84.1872929 L351.74701,84.0240469 Z" id="Fill-2224" fill="#006225"></path>
                    <path d="M167.693525,382.530827 L219.629621,392.396567 L283.004915,395.569219 L349.102809,361.344327 L373.093052,352.07479 L432.819207,345.850147 C466.281533,434.883129 511.681963,503.403889 594.621492,545.244565 C633.978035,594.346141 684.809411,627.151502 743.209901,645.974482 L743.209901,741.728944 L127.046955,741.728944 L127.046955,389.202623 L167.693525,382.530827 Z" id="Fill-2226" fill="#006225"></path>
                    <path d="M335.085694,277.597678 L437.988584,566.507719 L536.052087,295.306327 C543.093786,276.156854 547.804883,259.115385 550.206758,244.196114 C552.580124,229.305234 550.933735,219.077514 545.246208,213.541343 L546.336674,202.65354 L665.503894,202.65354 L665.503894,212.874163 C647.949536,216.806264 634.414933,224.095556 624.871578,234.749136 C615.342477,245.409813 611.001996,262.415794 611.885772,285.788372 L623.788239,533.794628 C625.384738,564.882356 627.515779,588.560133 630.131471,604.792469 C632.768544,621.017708 638.292144,632.66496 646.709398,639.734224 C655.112398,646.803488 668.796672,652.140925 687.719457,655.767826 L687.719457,665.995547 L509.524551,665.995547 L509.524551,655.767826 C523.501042,653.368819 535.560308,650.174874 545.631079,646.19309 C555.730358,642.204208 563.377871,635.333678 568.537983,625.5815 C573.698095,615.829323 575.871899,601.130079 575.038013,581.490868 L560.4272,283.730052 L559.358116,283.730052 L421.211093,665.995547 L415.252732,665.995547 L286.877137,299.415869 L285.793799,299.415869 C282.914399,333.789812 280.469761,366.084141 278.445628,396.29176 C276.400115,426.478086 274.618308,456.756682 273.121591,487.106254 C271.617746,517.477119 270.242191,550.055355 268.994927,584.897743 C268.246568,593.897569 268.845255,602.932884 270.819497,612.05337 C272.758102,621.166759 278.424247,629.563285 287.789422,637.228752 C297.133215,644.908414 312.542278,651.09757 334.002356,655.767826 L334.002356,665.995547 L182.869527,665.995547 L182.869527,655.767826 C198.656333,652.39644 210.480401,646.789293 218.341731,638.925091 C226.203062,631.06089 231.797934,620.712509 235.14773,607.851558 C238.497526,595.011901 241.305654,579.411255 243.55073,561.05672 L263.592489,369.583285 L270.619934,276.916303 C271.560728,254.785815 266.037128,238.915459 254.034879,229.305234 C242.046885,219.69501 227.706906,214.21562 211.043452,212.874163 L211.043452,202.65354 L328.043995,202.65354 L328.585664,210.134469 C324.836743,215.706128 323.35428,223.045103 324.131147,232.172687 C324.908015,241.300271 326.554404,250.151047 329.056061,258.732111 C331.586226,267.334469 333.596104,273.608796 335.085694,277.597678" id="Fill-2228" fill="#FEFEFE"></path>
                    <path d="M842.072366,112.133599 L830.554769,112.133599 L830.554769,98.8042034 L843.362394,98.8042034 C846.362956,98.8042034 848.551015,99.4216993 849.940824,100.649594 C851.330633,101.877488 852.021974,103.438972 852.021974,105.348241 C852.021974,106.647112 851.67274,107.853713 850.945763,108.960947 C850.23304,110.068182 849.185338,110.877314 847.809783,111.37415 C846.419974,111.878084 844.517005,112.133599 842.072366,112.133599 M849.370646,118.315657 C848.643669,117.662672 847.567457,116.988395 846.134885,116.314118 C850.02635,115.781794 852.90575,114.532607 854.758829,112.573654 C856.619035,110.614701 857.545574,108.208596 857.545574,105.348241 C857.545574,103.133773 856.982523,101.103844 855.863549,99.2726486 C854.73032,97.4414536 853.240729,96.1638758 851.366269,95.439915 C849.491809,94.7159542 846.740699,94.3539738 843.134323,94.3539738 L825.209349,94.3539738 L825.209349,134.640263 L830.554769,134.640263 L830.554769,116.754172 L836.76971,116.754172 C838.138137,116.754172 839.143076,116.818051 839.748891,116.945809 C840.575649,117.144544 841.381025,117.506524 842.186402,118.017555 C842.991778,118.528586 843.896936,119.429988 844.901875,120.707566 C845.921068,121.992242 847.211096,123.84473 848.764831,126.26503 L854.117378,134.640263 L860.859734,134.640263 L853.818035,123.674386 C852.421098,121.530894 850.945763,119.749383 849.370646,118.315657" id="Fill-2230" fill="#FEFEFE"></path>
                    <path d="M840.944839,146.675756 C823.41899,146.675756 809.150284,132.473349 809.150284,115.020215 C809.150284,97.5599845 823.41899,83.3646747 840.944839,83.3646747 C858.470688,83.3646747 872.739394,97.5599845 872.739394,115.020215 C872.739394,132.473349 858.470688,146.675756 840.944839,146.675756 M840.944839,78.6731249 C820.831807,78.6731249 804.453442,94.9764381 804.453442,115.020215 C804.453442,135.063993 820.831807,151.367306 840.944839,151.367306 C861.064998,151.367306 877.443364,135.063993 877.443364,115.020215 C877.443364,94.9764381 861.064998,78.6731249 840.944839,78.6731249" id="Fill-2232" fill="#FEFEFE"></path>
                </g>
            </g>
        </g>
    </g>
</svg>